<svg xmlns="http://www.w3.org/2000/svg" version="1.1" xmlns:xlink="http://www.w3.org/1999/xlink" viewBox="0 0 200 200"><rect width="200" height="200" fill="url('#gradient')"></rect><defs><linearGradient id="gradient" gradientTransform="rotate(271 0.5 0.5)"><stop offset="0%" stop-color="#3c4845"></stop><stop offset="100%" stop-color="#1b7974"></stop></linearGradient></defs><g><g fill="#3df383" transform="matrix(2.0746037421046357,0,0,2.0746037421046357,13.602616870045289,111.13145976793409)" stroke="#1f6a36" stroke-width="1.55"><path d="M13.12-7.47L13.12-6.82Q13.12-4.74 12.34-3.13Q11.57-1.53 10.15-0.67Q8.73 0.20 6.91 0.20Q5.10 0.20 3.69-0.64Q2.29-1.47 1.50-3.03Q0.71-4.58 0.67-6.59L0.67-6.59L0.67-7.39Q0.67-9.48 1.44-11.08Q2.21-12.68 3.64-13.54Q5.07-14.41 6.89-14.41L6.89-14.41Q8.70-14.41 10.12-13.55Q11.53-12.70 12.32-11.11Q13.11-9.52 13.12-7.47L13.12-7.47ZM9.63-6.76L9.63-7.41Q9.63-9.53 8.92-10.63Q8.21-11.73 6.89-11.73L6.89-11.73Q4.32-11.73 4.17-7.86L4.17-7.86L4.16-6.82Q4.16-4.73 4.85-3.60Q5.55-2.48 6.91-2.48L6.91-2.48Q8.21-2.48 8.92-3.58Q9.62-4.69 9.63-6.76L9.63-6.76ZM14.67-10.57L17.75-10.57L17.86-9.33Q18.96-10.76 20.88-10.76L20.88-10.76Q22.53-10.76 23.34-9.78Q24.16-8.79 24.19-6.81L24.19-6.81L24.19 0L20.89 0L20.89-6.67Q20.89-7.47 20.57-7.85Q20.24-8.22 19.39-8.22L19.39-8.22Q18.43-8.22 17.96-7.46L17.96-7.46L17.96 0L14.67 0L14.67-10.57ZM31.12 0.20L31.12 0.20Q28.69 0.20 27.19-1.25Q25.68-2.71 25.68-5.03L25.68-5.03L25.68-5.30Q25.68-6.92 26.28-8.16Q26.88-9.40 28.04-10.08Q29.19-10.76 30.77-10.76L30.77-10.76Q33.00-10.76 34.29-9.38Q35.58-8.00 35.58-5.53L35.58-5.53L35.58-4.25L29.03-4.25Q29.21-3.36 29.80-2.85Q30.40-2.34 31.35-2.34L31.35-2.34Q32.91-2.34 33.79-3.44L33.79-3.44L35.29-1.66Q34.68-0.81 33.55-0.31Q32.42 0.20 31.12 0.20ZM30.75-8.22L30.75-8.22Q29.31-8.22 29.03-6.31L29.03-6.31L32.35-6.31L32.35-6.56Q32.37-7.35 31.95-7.79Q31.53-8.22 30.75-8.22ZM39.63-14.22L42.26-8.05L44.87-14.22L48.57-14.22L43.99-5.11L43.99 0L40.52 0L40.52-5.11L35.95-14.22L39.63-14.22ZM56.79-3.78L56.79-3.78Q56.79-4.53 56.25-4.95Q55.72-5.37 54.38-5.82Q53.05-6.27 52.20-6.69L52.20-6.69Q49.43-8.05 49.43-10.42L49.43-10.42Q49.43-11.60 50.12-12.50Q50.81-13.41 52.07-13.91Q53.33-14.41 54.90-14.41L54.90-14.41Q56.44-14.41 57.65-13.87Q58.87-13.32 59.54-12.31Q60.21-11.30 60.21-10L60.21-10L56.80-10Q56.80-10.87 56.26-11.35Q55.73-11.83 54.82-11.83L54.82-11.83Q53.91-11.83 53.37-11.42Q52.84-11.02 52.84-10.39L52.84-10.39Q52.84-9.84 53.43-9.40Q54.01-8.96 55.49-8.48Q56.96-8.01 57.91-7.46L57.91-7.46Q60.21-6.13 60.21-3.80L60.21-3.80Q60.21-1.93 58.81-0.87Q57.40 0.20 54.95 0.20L54.95 0.20Q53.22 0.20 51.82-0.42Q50.42-1.04 49.71-2.12Q49.00-3.20 49.00-4.61L49.00-4.61L52.44-4.61Q52.44-3.47 53.03-2.92Q53.62-2.38 54.95-2.38L54.95-2.38Q55.80-2.38 56.29-2.75Q56.79-3.12 56.79-3.78ZM65.04-15L65.04-9.43Q66.09-10.76 67.73-10.76L67.73-10.76Q69.48-10.76 70.37-9.73Q71.26-8.69 71.28-6.67L71.28-6.67L71.28 0L67.98 0L67.98-6.59Q67.98-7.43 67.64-7.83Q67.29-8.22 66.47-8.22L66.47-8.22Q65.46-8.22 65.04-7.58L65.04-7.58L65.04 0L61.75 0L61.75-15L65.04-15ZM75.66-10.57L77.33-4.61L79.09-10.57L82.62-10.57L78.31 1.77L78.13 2.22Q77.21 4.27 74.88 4.27L74.88 4.27Q74.24 4.27 73.53 4.07L73.53 4.07L73.53 1.72L73.96 1.72Q74.65 1.72 75.01 1.52Q75.38 1.32 75.56 0.80L75.56 0.80L75.82 0.10L72.15-10.57L75.66-10.57Z"></path></g></g></svg>
